# xmcd
#
# Track frame offsets:
#	150
#	17105
#	34660
#	53198
#	71446
#	90044
#	109591
#	122567
#	143940
#	162157
#	181540
#	201453
#	219479
#	236252
#	254291
#	269565
#
# Disc length: 3853 seconds
#
# Revision: 9
# Processed by: cddbd v1.5.2PL0 Copyright (c) Steve Scherf et al.
# Submitted via: EasyCDDAExtractor 15.3.0.1
#
DISCID=d40f0b10
DTITLE=Cher - Gold - CD 2
DYEAR=2005
DGENRE=Pop/Rock
TTITLE0=I Found Someone
TTITLE1=We All Sleep Alone
TTITLE2=After All (Love Theme From Chances Are) (Cher With Peter Cetera)
TTITLE3=If I Could Turn Back Time
TTITLE4=Just Like Jesse James
TTITLE5=Heart Of Stone (Remix)
TTITLE6=The Shoop Shoop Song (It's In His Kiss)
TTITLE7=Love And Understanding
TTITLE8=Save Up All Your Tears
TTITLE9=Love Hurts
TTITLE10=One By One (Junior Vasquez Vocal Edit)
TTITLE11=Believe
TTITLE12=Strong Enough
TTITLE13=All Or Nothing
TTITLE14=Song For The Lonely
TTITLE15=A Different Kind Of Love Song (Rodney Jerkins Main Mix - Faster)
EXTD=
EXTT0=
EXTT1=
EXTT2=
EXTT3=
EXTT4=
EXTT5=
EXTT6=
EXTT7=
EXTT8=
EXTT9=
EXTT10=
EXTT11=
EXTT12=
EXTT13=
EXTT14=
EXTT15=
PLAYORDER=
